<?xml version="1.0" encoding="utf-8"?>
<!-- Generator: Adobe Illustrator 27.7.0, SVG Export Plug-In . SVG Version: 6.00 Build 0)  -->
<svg version="1.1" id="Ebene_1" xmlns="http://www.w3.org/2000/svg" xmlns:xlink="http://www.w3.org/1999/xlink" x="0px" y="0px"
	 viewBox="0 0 1920 1080" style="enable-background:new 0 0 1920 1080;" xml:space="preserve">
<style type="text/css">
	.st0{fill:#34342E;}
</style>
<path class="st0" d="M598.94,389.22c8.16-31.38,29.28-38.7,65.26-75.5c55.28-56.54,45.56-80.29,76.7-90.53
	c37.39-12.3,48.04,23.07,114.67,25.38c54.86,1.91,79.9-20.95,114.13-1.25c20.93,12.04,31.53,32.09,33.26,35.45
	c14.92,29.01,0.24,42.95,13.74,75.73c11.66,28.3,26.45,27.26,30.23,52.12c0,0,0.61,3.51,0.79,7.09c0.97,19.51-9.74,44.22-9.74,44.22
	c-15.66,36.14,4.07,52.6-12.21,75.73c-11.74,16.68-20.72,6.3-46.42,26.06c-32.3,24.83-34.31,50.86-67.59,65.15
	c-33.9,14.55-47.3-18.2-110.86-22.14c-64.3-3.99-91.61,27-129.81,4.83c-4.65-2.7-23.79-13.85-31.7-35.25
	c-11.1-30.05,11.95-47.53,2.79-78.53c-7.24-24.51-27.4-21.98-39.55-49.93C591.12,421.31,597.39,395.18,598.94,389.22z"/>
</svg>
